<svg width="352" height="352" viewBox="0 0 352 352" fill="none" xmlns="http://www.w3.org/2000/svg">
<g clip-path="url(#clip0)">
<path d="M279.017 286.815H342.169C342.169 286.815 331.968 262.858 317.907 274.841C310.924 257.372 294.138 279.154 294.138 279.154C294.138 279.154 275.752 269.507 279.017 286.815Z" fill="#D3D0D0"/>
<path d="M59.6129 286.815H0.0378533C0.0378533 286.815 -1.19225 271.096 11.1372 270.632C23.4667 270.169 25.8323 276.487 25.8323 276.487C25.8323 276.487 27.157 257.684 39.4865 258.687C51.8159 259.699 47.5011 278.719 47.5011 278.719C47.5011 278.719 52.0146 273.716 58.3828 278.104C64.751 282.493 59.6129 286.815 59.6129 286.815Z" fill="#D3D0D0"/>
<path d="M51.6172 8.16229C51.6172 8.16229 58.0421 11.6901 61.0039 17.573C72.794 9.93094 80.0705 8.16229 80.0705 8.16229C80.0705 8.16229 65.1011 8.16229 61.0039 12.8629C56.9067 7.57589 51.6172 8.16229 51.6172 8.16229Z" fill="#D3D0D0"/>
<path d="M79.7488 59.7654C79.7488 59.7654 75.4056 62.1488 73.3996 66.1212C65.4323 60.9571 60.5118 59.7654 60.5118 59.7654C60.5118 59.7654 70.6366 59.7654 73.3996 62.9433C76.1626 59.3681 79.7488 59.7654 79.7488 59.7654Z" fill="#D3D0D0"/>
<path d="M20.1738 42.145C20.1738 42.145 31.5191 38.9104 34.4241 51.0734C44.0189 34.7867 55.7712 40.9155 55.7712 40.9155C55.7712 40.9155 41.748 38.0119 33.563 61.4111C32.0301 43.1287 20.1738 42.145 20.1738 42.145Z" fill="#D3D0D0"/>
<path d="M352 140.282C352 173.536 337.75 182.54 320.159 182.54C302.578 182.54 288.318 173.536 288.318 140.282C288.318 107.027 302.578 0 320.169 0C337.75 0 352 107.027 352 140.282Z" fill="#D3D0D0"/>
<path d="M322.865 62.9433H314.718V286.815H322.865V62.9433Z" fill="#D3D0D0"/>
<path d="M162.724 351.991C243.433 351.991 308.861 347.858 308.861 342.759C308.861 337.661 243.433 333.528 162.724 333.528C82.0152 333.528 16.5875 337.661 16.5875 342.759C16.5875 347.858 82.0152 351.991 162.724 351.991Z" fill="#D3D0D0"/>
<path d="M144.538 134.919L160.103 157.297L201.094 175.125L198.312 184.29L151.625 176.336L127.392 146.079L144.538 134.919Z" fill="#FF9D79"/>
<path d="M208.068 115.246C208.068 115.246 213.178 101.333 201.094 98.4961C189.011 95.6587 180.031 110.81 183.929 119.512C187.828 128.223 198.738 124.449 198.738 124.449" fill="#ECECEC"/>
<path d="M198.218 117.45C195.824 121.583 200.328 123.891 200.328 123.891L204.671 114.367C204.671 114.367 200.943 112.749 198.218 117.45Z" fill="#F04957"/>
<path d="M219.555 106.772C213.424 107.661 203.015 112.702 198.606 123.342C194.196 133.983 193.931 145.644 208.409 150.714C222.895 155.783 245.179 134.389 247.28 126.142C249.381 117.913 240.249 103.764 219.555 106.772Z" fill="#ECECEC"/>
<path d="M238.12 224.931C238.707 228.374 239.398 231.571 239.407 232.649C239.455 243.109 237.638 247.602 237.638 247.602C237.638 247.602 234.137 250.402 226.434 251.754C220.965 252.719 213.357 252.946 203.375 250.893C196.59 249.513 188.717 247.072 179.662 243.11L179.142 206.11C180.873 199.338 182.775 193.767 184.819 189.17C191.745 173.631 200.375 169.119 209.998 166.329C220.312 172.931 226.482 169.318 226.482 169.318C226.482 169.318 236.209 174.614 239.474 204.861C239.937 209.202 237.43 213.544 237.345 217.346C237.297 219.464 237.676 222.273 238.12 224.931Z" fill="#A23357"/>
<path opacity="0.2" d="M239.407 232.649C239.455 243.11 237.638 247.602 237.638 247.602C237.638 247.602 234.137 250.402 226.434 251.754L203.375 250.893C196.59 249.513 188.717 247.072 179.662 243.11L179.142 206.11C180.873 199.338 182.775 193.767 184.819 189.17C187.885 196.188 201.217 221.044 238.12 224.931C238.707 228.374 239.398 231.571 239.407 232.649Z" fill="#441E46"/>
<path d="M237.515 220.628C237.515 220.628 245.747 220.004 248.406 221.574C251.065 223.153 254.112 229.074 253.345 229.991C252.588 230.909 242.549 229.991 242.549 229.991L237.515 220.628Z" fill="#FFBEA0"/>
<path d="M244.536 230.918H188.963V198.704C188.963 192.112 190.988 187.771 193.846 185.264C201.17 178.833 213.982 184.451 212.269 195.11L209.336 214.811C209.336 214.811 216.414 215.937 233.257 217.828C240.921 218.698 243.713 222.028 244.602 225.12C245.482 228.137 244.536 230.918 244.536 230.918Z" fill="#8D3052"/>
<path opacity="0.2" d="M244.536 230.918H188.963V198.704C188.963 192.112 190.988 187.771 193.846 185.264C194.442 195.64 196.372 217.696 202.163 220.921C218.789 222.292 237.486 224.326 244.602 225.12C245.482 228.137 244.536 230.918 244.536 230.918Z" fill="#441E46"/>
<path d="M209.998 166.329C209.998 166.329 203.119 177.953 211.985 183.467C220.852 188.981 222.243 178.483 222.243 178.483C222.243 178.483 227.608 185.245 230.778 180.838C233.938 176.43 226.501 169.318 226.501 169.318L209.998 166.329Z" fill="#F04957"/>
<path d="M209.998 166.329C209.998 166.329 210.301 174.132 219.215 175.135C227.154 176.024 226.491 169.318 226.491 169.318L226.557 165.459L226.633 160.787V160.333L213.433 154.582L209.998 166.329Z" fill="#FFBEA0"/>
<path d="M214.928 158.753C216.12 165.26 223.047 165.677 226.557 165.459L226.633 160.787C224.76 159.652 221.258 158.923 214.928 158.753Z" fill="#FF9D79"/>
<path d="M208.305 143.441C207.652 141.823 207.377 139.837 207.273 138.456C207.188 137.444 207.178 136.754 207.178 136.754C207.178 136.754 205.844 129.745 200.593 131.391C199.06 131.873 198.52 133.444 198.7 135.335C199.079 139.932 203.668 146.401 208.305 143.441Z" fill="#FFBEA0"/>
<path d="M208.305 143.441C207.652 141.823 207.377 139.837 207.273 138.456C205.4 136.451 202.277 134.115 198.7 135.326C199.079 139.932 203.668 146.401 208.305 143.441Z" fill="#FF9D79"/>
<path d="M242.634 128.043C242.634 128.043 250.138 156.729 238.348 161.364C226.557 165.989 206.138 163.094 205.542 149.106C204.945 135.118 208.342 124.203 208.342 124.203C208.342 124.203 213.897 116.23 226.86 116.353C239.824 116.485 242.634 128.043 242.634 128.043Z" fill="#FFBEA0"/>
<path d="M234.894 136.054C234.884 137.179 235.007 138.087 235.897 138.097C236.777 138.106 237.505 137.198 237.515 136.073C237.524 134.947 236.815 134.03 235.935 134.02C235.055 134.02 234.903 134.928 234.894 136.054Z" fill="#452C59"/>
<path d="M222.706 136.262C222.697 137.388 222.82 138.296 223.709 138.305C224.589 138.314 225.318 137.406 225.327 136.281C225.337 135.155 224.627 134.238 223.747 134.229C222.858 134.229 222.716 135.137 222.706 136.262Z" fill="#452C59"/>
<path d="M230.125 134.701C231.677 134.72 234.345 143.857 232.784 145.389C231.222 146.921 228.147 144.774 227.996 143.8C227.844 142.826 229.065 134.692 230.125 134.701Z" fill="#FF9D79"/>
<path d="M230.579 148.047C230.579 148.047 225.157 146.477 222.299 143.573C220.218 148.189 228.686 151.291 230.579 148.047Z" fill="white"/>
<path d="M214.644 139.355C214.635 140.679 215.695 141.767 217.019 141.776C218.344 141.786 219.432 140.726 219.442 139.402C219.451 138.078 218.391 136.99 217.067 136.981C215.742 136.962 214.663 138.021 214.644 139.355Z" fill="#FF88C7"/>
<path d="M238.84 138.797C238.83 140.121 239.89 141.209 241.215 141.218C242.539 141.227 243.628 140.168 243.637 138.844C243.646 137.52 242.587 136.432 241.262 136.423C239.937 136.404 238.849 137.473 238.84 138.797Z" fill="#FF88C7"/>
<path d="M271.456 317.743L272.469 324.108C272.469 324.108 283.341 327.466 283.682 328.572C284.022 329.679 257.878 331.315 256.998 329.953C256.118 328.591 255.929 321.006 255.929 321.006" fill="#A23357"/>
<path d="M242.208 146.808C243.675 150.534 240.297 158.318 233.512 160.153C222.441 163.142 216.007 156.862 214.994 149.683C214.209 144.112 222.148 138.891 230.163 139.544C238.177 140.197 240.268 141.871 242.208 146.808Z" fill="white"/>
<path d="M219.849 144.613L205.646 128.459L204.69 128.45L218.089 146.42L205.475 145.436C205.475 145.436 201.7 147.791 217.407 148.614" fill="white"/>
<path d="M239.095 143.356L244.12 135.486C244.12 135.486 244.782 136.271 244.441 137.747C244.101 139.222 239.918 146.004 239.918 146.004" fill="white"/>
<path d="M240.685 145.559L244.952 143.8C244.952 143.8 245.955 144.538 244.99 145.682L241.148 147.744" fill="white"/>
<path d="M238.111 125.262C238.111 125.262 216.707 135.903 198.312 133.945C200.839 122.822 210.793 107.528 226.917 109.08C243.041 110.631 246.182 124.392 243.618 129.755C240.883 128.554 238.111 125.262 238.111 125.262Z" fill="#ECECEC"/>
<path d="M220.341 129.49C220.322 130.171 224.987 130.313 224.76 129.216C224.532 128.109 220.388 128.185 220.341 129.49Z" fill="white"/>
<path d="M235.708 129.604C235.509 130.256 239.975 131.628 240.041 130.502C240.117 129.377 236.095 128.355 235.708 129.604Z" fill="white"/>
<path d="M179.662 243.119C179.662 243.119 174.666 271.436 195.672 276.95C216.679 282.455 244.46 277.433 244.46 277.433L255.938 321.006L271.456 317.734C271.456 317.734 270.576 262.603 267.473 259.444C264.369 256.285 237.638 247.593 237.638 247.593C237.638 247.593 219.688 255.793 179.662 243.119Z" fill="#281B46"/>
<path d="M255.683 320.647H214.048C213.007 320.647 212.156 319.795 212.156 318.755C212.156 317.715 213.007 316.863 214.048 316.863H253.79V232.81H179.179C178.138 232.81 177.287 231.959 177.287 230.918C177.287 229.878 178.138 229.027 179.179 229.027H255.683C256.723 229.027 257.575 229.878 257.575 230.918V318.755C257.575 319.795 256.733 320.647 255.683 320.647Z" fill="#F04957"/>
<path d="M177.779 265.156C176.738 265.156 175.886 264.305 175.886 263.265V175.125H153.404C152.363 175.125 151.511 174.274 151.511 173.234C151.511 172.193 152.363 171.342 153.404 171.342H177.779C178.82 171.342 179.671 172.193 179.671 173.234V263.265C179.671 264.314 178.82 265.156 177.779 265.156Z" fill="#F04957"/>
<path d="M199.997 347.64C226.011 347.64 247.1 326.56 247.1 300.558C247.1 274.555 226.011 253.476 199.997 253.476C173.982 253.476 152.893 274.555 152.893 300.558C152.893 326.56 173.982 347.64 199.997 347.64Z" fill="#452C59"/>
<path d="M254.84 302.449C253.8 302.449 252.948 301.598 252.948 300.558C252.948 271.38 229.197 247.63 199.997 247.63C170.805 247.63 147.045 271.37 147.045 300.558C147.045 301.598 146.194 302.449 145.153 302.449C144.112 302.449 143.26 301.598 143.26 300.558C143.26 269.289 168.714 243.847 199.997 243.847C231.279 243.847 256.733 269.289 256.733 300.558C256.733 301.608 255.881 302.449 254.84 302.449Z" fill="#F04957"/>
<path d="M229.638 330.192C246.011 313.826 246.011 287.291 229.638 270.925C213.264 254.559 186.717 254.559 170.343 270.925C153.97 287.291 153.97 313.826 170.343 330.192C186.717 346.558 213.264 346.558 229.638 330.192Z" fill="white"/>
<path d="M199.997 333.349C218.115 333.349 232.803 318.668 232.803 300.558C232.803 282.448 218.115 267.767 199.997 267.767C181.878 267.767 167.191 282.448 167.191 300.558C167.191 318.668 181.878 333.349 199.997 333.349Z" fill="#ECECEC"/>
<path d="M206.384 300.558C206.384 297.03 203.526 294.173 199.997 294.173C196.467 294.173 193.609 297.03 193.609 300.558C193.609 304.086 196.467 306.942 199.997 306.942C203.526 306.942 206.384 304.086 206.384 300.558Z" fill="#452C59"/>
<path d="M275.506 333.377H255.683C254.642 333.377 253.79 332.526 253.79 331.485V318.755C253.79 317.715 254.642 316.863 255.683 316.863C256.723 316.863 257.575 317.715 257.575 318.755V329.594H275.506C276.547 329.594 277.399 330.445 277.399 331.485C277.399 332.526 276.557 333.377 275.506 333.377Z" fill="#F04957"/>
<path d="M226.274 187.326C226.274 188.574 225.261 189.586 224.012 189.586C222.763 189.586 221.751 188.574 221.751 187.326C221.751 186.078 222.763 185.066 224.012 185.066C225.261 185.075 226.274 186.087 226.274 187.326Z" fill="white"/>
<path d="M130.609 112.371L144.538 134.919L129.407 145.692L130.609 112.371Z" fill="#281B46"/>
<path d="M118.317 90.5891C118.317 90.5891 107.199 84.2428 111.296 68.0884C108.212 53.3055 131.148 31.6372 149.799 50.4492C177.523 53.5704 173.161 71.0961 157.151 78.3693" fill="#452C59"/>
<path d="M150.745 101.305C146.572 109.165 131.555 101.646 131.555 101.646L130.533 106.668L129.937 109.609C129.937 109.609 132.502 114.981 127.051 119.928C115.753 111.775 112.545 99.7634 112.545 99.7634L124.023 71.0772C127.732 73.4512 132.558 72.8931 134.299 67.975C145.408 74.2267 153.622 67.0575 153.622 67.0575L160.103 74.5388C160.103 74.5294 154.937 93.4455 150.745 101.305Z" fill="#FFBEA0"/>
<path d="M130.533 106.668C127.042 104.379 123.9 99.7067 123.314 94.2305C124.998 97.5503 131.555 101.646 131.555 101.646L130.533 106.668Z" fill="#FF9D79"/>
<path d="M125.197 68.4289C125.197 68.4289 121.014 86.1817 120.352 89.5771C119.689 92.9726 127.354 102.355 136.637 105.107C145.919 107.85 152.136 104.02 153.811 94.221C149.695 96.8031 151.076 92.3389 142.986 91.0904C139.892 90.6175 133.268 92.3389 133.268 92.3389C133.268 92.3389 124.127 90.4473 126.398 82.0201C128.669 73.593 132.426 68.1263 132.426 68.1263L125.197 68.4289Z" fill="#452C59"/>
<path d="M142.901 78.218C142.617 79.0503 141.699 79.5043 140.866 79.2111C140.034 78.9274 140.308 78.2558 140.592 77.4141C140.876 76.5818 141.074 75.8913 141.907 76.1845C142.749 76.4777 143.194 77.3857 142.901 78.218Z" fill="#452C59"/>
<path d="M155.041 82.9092C154.757 83.7415 153.839 84.1955 153.006 83.9023C152.174 83.6185 152.486 82.9565 152.779 82.1242C153.063 81.2919 153.215 80.5825 154.057 80.8757C154.88 81.1595 155.325 82.0769 155.041 82.9092Z" fill="#452C59"/>
<path d="M124.411 76.1656L122.301 79.3246L120.295 82.3323C113.17 83.1457 112.574 74.7469 115.526 70.6894C116.538 69.2802 117.977 68.3911 119.708 68.5803C126.483 69.2896 124.411 76.1656 124.411 76.1656Z" fill="#FFBEA0"/>
<path d="M122.301 79.3341L120.295 82.3417C113.17 83.1551 112.574 74.7564 115.526 70.6989C120.797 70.7462 122.14 75.6927 122.301 79.3341Z" fill="#FF9D79"/>
<path d="M133.552 84.2901C132.965 85.9358 131.158 86.8059 129.511 86.2195C127.865 85.6331 126.994 83.8266 127.581 82.1809C128.168 80.5352 129.975 79.6651 131.622 80.2515C133.268 80.8284 134.129 82.6349 133.552 84.2901Z" fill="#FF88C7"/>
<path d="M149.231 78.776C151.332 79.3341 149.505 91.0242 146.383 89.9176C141.907 88.3381 146.629 78.0761 149.231 78.776Z" fill="#FF9D79"/>
<path d="M148.105 83.2591C152.467 84.8103 154.861 91.97 151.332 98.2312C147.802 104.492 136.807 103.064 131.943 96.9733C127.089 90.8729 136.353 79.0787 148.105 83.2591Z" fill="white"/>
<path d="M126.266 69.6679C125.225 70.0274 138.803 86.1439 138.803 86.1439L140.336 85.4818C140.336 85.4818 128.139 69.0153 126.266 69.6679Z" fill="white"/>
<path d="M134.205 88.3854C134.205 88.3854 118.573 82.9659 117.977 84.3847C117.381 85.8034 133.751 89.6622 133.751 89.6622" fill="white"/>
<path d="M151.625 88.9623C151.625 88.9623 156.649 87.5247 156.905 88.6502C157.16 89.7757 152.221 90.8823 152.221 90.8823" fill="white"/>
<path d="M151.606 94.0602L151.086 95.5357C151.086 95.5357 152.883 97.38 153.64 96.6139C154.397 95.8478 151.606 94.0602 151.606 94.0602Z" fill="white"/>
<path d="M130.628 249.872C129.852 274.482 123.872 330.388 123.872 330.388H105.013C105.013 330.388 107.284 290.05 106.981 262.707C106.631 231.694 105.382 221.328 105.382 221.328H99.0142C99.0142 221.328 95.7023 256.72 88.8232 273.981C81.9441 291.251 53.0082 322.5 53.0082 322.5L38.4834 312.73C38.4834 312.73 61.212 276.033 65.735 260.418C70.258 244.793 69.6146 206.166 69.6146 206.166L69.6903 202.043L130.628 202.639C130.628 202.639 131.48 222.822 130.628 249.872Z" fill="#F04957"/>
<path opacity="0.2" d="M72.4249 212.276L81.1871 207.85C81.1871 207.85 84.6787 224.487 80.5626 226.435C76.4464 228.383 72.6331 215.918 72.4249 212.276Z" fill="#441E46"/>
<path d="M131.886 167.899C131.451 174.473 131.044 181.216 130.817 187.95C130.637 192.878 130.552 197.796 130.618 202.639C118.478 205.126 106.858 205.675 97.0933 205.372C95.1535 205.315 93.2989 205.221 91.5105 205.098C78.7553 204.265 70.2297 202.175 69.7092 202.052C69.6998 202.043 69.6903 202.043 69.6903 202.043C69.6903 202.043 69.6809 201.977 69.6714 201.863C69.3686 198.912 75.2353 133.699 87.5458 117.932C103.007 98.1556 112.545 99.754 112.545 99.754C112.545 99.754 116.548 107.254 129.947 109.619C135.747 118.907 133.59 142.098 131.886 167.899Z" fill="#281B46"/>
<path opacity="0.2" d="M131.886 167.899C131.451 174.473 131.044 181.216 130.817 187.95C120.494 185.803 102.591 181.992 100.575 180.895C97.7084 179.334 95.1535 140.707 95.1535 140.707L131.886 167.899Z" fill="#441E46"/>
<path d="M105.013 330.398C105.013 330.398 103.585 339.08 104.228 340.244C104.871 341.407 133.107 341.407 133.618 340.244C134.138 339.08 123.304 334.957 123.304 334.957L123.872 330.398H105.013Z" fill="#281B46"/>
<path d="M38.4834 312.73L31.9733 320.798C31.9733 320.798 52.4026 338.57 53.6043 337.851C54.806 337.132 50.9643 326.558 50.9643 326.558L53.0082 322.51L38.4834 312.73Z" fill="#281B46"/>
<path d="M138.094 74.5577C138.094 74.5577 143.733 72.5054 146.941 74.1227C146.733 71.4461 138.52 70.7272 138.094 74.5577Z" fill="#452C59"/>
<path d="M153.385 76.4115C153.385 76.4115 157.009 78.445 157.406 82.0107C159.535 80.365 156.829 74.6712 153.385 76.4115Z" fill="#452C59"/>
<path d="M148.578 51.8301C148.578 51.8301 148.635 46.9686 146.544 43.9988C153.252 47.1294 152.325 52.1044 152.325 52.1044" fill="#452C59"/>
<path d="M149.695 51.9057C149.695 51.9057 152.372 47.5645 158.807 48.7278C157.406 50.5816 154.719 52.2746 154.719 52.2746" fill="#452C59"/>
<path d="M114.57 65.9888C114.57 65.9888 108.694 66.84 108.391 70.888C111.93 71.4366 114.286 69.8193 114.286 69.8193" fill="#452C59"/>
<path opacity="0.2" d="M119.51 330.388H105.013C105.013 330.388 107.284 290.05 106.982 262.707C106.631 231.694 105.382 221.328 105.382 221.328H99.0142L104.067 211.293L120.532 208.616C120.532 208.616 124.184 290.627 119.51 330.388Z" fill="#441E46"/>
<path d="M95.1535 140.707C95.1535 140.707 104.427 168.344 106.802 172.099C109.177 175.853 146.818 180.639 146.818 180.639C146.818 180.639 157.794 184.839 162.09 184.224C166.386 183.618 169.461 178.426 169.234 176.459C169.007 174.491 163.16 173.073 163.16 173.073C163.16 173.073 163.065 171.389 162.09 171.219C161.116 171.049 149.363 170.169 149.363 170.169L120.91 156.597L118.081 134.626C118.071 134.626 102.619 134.181 95.1535 140.707Z" fill="#FFBEA0"/>
</g>
<defs>
<clipPath id="clip0">
<rect width="352" height="352" fill="white"/>
</clipPath>
</defs>
</svg>
